<mxfile host="app.diagrams.net" modified="2021-11-15T08:31:45.824Z" agent="5.0 (Windows NT 10.0; Win64; x64) AppleWebKit/537.36 (KHTML, like Gecko) Chrome/95.0.4638.69 Safari/537.36" etag="kvqx_tUUOCbhUYzT3U9r" version="15.7.3" type="github" pages="3">
  <diagram id="0zNtji5Bm1usM6clEmAa" name="Page-1">
    <mxGraphModel dx="1079" dy="757" grid="1" gridSize="10" guides="1" tooltips="1" connect="1" arrows="1" fold="1" page="1" pageScale="1" pageWidth="827" pageHeight="1169" math="0" shadow="0">
      <root>
        <mxCell id="0" />
        <mxCell id="1" parent="0" />
        <mxCell id="dNukob80SHSAQVU258_d-9" style="edgeStyle=orthogonalEdgeStyle;rounded=0;orthogonalLoop=1;jettySize=auto;html=1;exitX=0.5;exitY=1;exitDx=0;exitDy=0;exitPerimeter=0;entryX=0.5;entryY=0;entryDx=0;entryDy=0;fontSize=14;" parent="1" source="dNukob80SHSAQVU258_d-1" target="NQ43_fncHJeU2ACMJRgW-8" edge="1">
          <mxGeometry relative="1" as="geometry">
            <mxPoint x="230" y="235" as="targetPoint" />
          </mxGeometry>
        </mxCell>
        <mxCell id="dNukob80SHSAQVU258_d-1" value="App开始" style="strokeWidth=2;html=1;shape=mxgraph.flowchart.start_1;whiteSpace=wrap;fontSize=14;" parent="1" vertex="1">
          <mxGeometry x="180" y="140" width="100" height="60" as="geometry" />
        </mxCell>
        <mxCell id="dNukob80SHSAQVU258_d-14" style="edgeStyle=orthogonalEdgeStyle;rounded=0;orthogonalLoop=1;jettySize=auto;html=1;exitX=1;exitY=0.5;exitDx=0;exitDy=0;entryX=0;entryY=0.5;entryDx=0;entryDy=0;fontSize=14;" parent="1" edge="1">
          <mxGeometry relative="1" as="geometry">
            <mxPoint x="285" y="269.5" as="sourcePoint" />
            <mxPoint x="334" y="269.5" as="targetPoint" />
          </mxGeometry>
        </mxCell>
        <mxCell id="dNukob80SHSAQVU258_d-15" style="edgeStyle=orthogonalEdgeStyle;rounded=0;orthogonalLoop=1;jettySize=auto;html=1;fontSize=14;" parent="1" target="dNukob80SHSAQVU258_d-10" edge="1">
          <mxGeometry relative="1" as="geometry">
            <mxPoint x="230" y="305" as="sourcePoint" />
          </mxGeometry>
        </mxCell>
        <mxCell id="dNukob80SHSAQVU258_d-16" value="接受" style="edgeLabel;html=1;align=center;verticalAlign=middle;resizable=0;points=[];fontSize=14;" parent="dNukob80SHSAQVU258_d-15" vertex="1" connectable="0">
          <mxGeometry x="-0.0286" y="-2" relative="1" as="geometry">
            <mxPoint as="offset" />
          </mxGeometry>
        </mxCell>
        <mxCell id="dNukob80SHSAQVU258_d-10" value="创建&lt;b&gt;viewController&lt;/b&gt;&lt;br&gt;并显示" style="rounded=0;whiteSpace=wrap;html=1;fontSize=14;" parent="1" vertex="1">
          <mxGeometry x="160" y="350" width="140" height="60" as="geometry" />
        </mxCell>
        <mxCell id="dNukob80SHSAQVU258_d-11" value="接入易盾、unisdk初始化、获取权限等" style="rounded=0;whiteSpace=wrap;html=1;fontSize=14;" parent="1" vertex="1">
          <mxGeometry x="334" y="240" width="106" height="60" as="geometry" />
        </mxCell>
        <mxCell id="NQ43_fncHJeU2ACMJRgW-2" style="edgeStyle=orthogonalEdgeStyle;rounded=0;orthogonalLoop=1;jettySize=auto;html=1;exitX=0;exitY=0.5;exitDx=0;exitDy=0;" edge="1" parent="1" source="NQ43_fncHJeU2ACMJRgW-8" target="NQ43_fncHJeU2ACMJRgW-8">
          <mxGeometry relative="1" as="geometry">
            <mxPoint x="175" y="275" as="sourcePoint" />
            <mxPoint x="210" y="255" as="targetPoint" />
            <Array as="points">
              <mxPoint x="120" y="270" />
              <mxPoint x="120" y="220" />
              <mxPoint x="210" y="220" />
            </Array>
          </mxGeometry>
        </mxCell>
        <mxCell id="NQ43_fncHJeU2ACMJRgW-3" value="拒绝" style="edgeLabel;html=1;align=center;verticalAlign=middle;resizable=0;points=[];" vertex="1" connectable="0" parent="NQ43_fncHJeU2ACMJRgW-2">
          <mxGeometry x="0.1745" y="-2" relative="1" as="geometry">
            <mxPoint as="offset" />
          </mxGeometry>
        </mxCell>
        <mxCell id="NQ43_fncHJeU2ACMJRgW-9" value="" style="edgeStyle=orthogonalEdgeStyle;rounded=0;orthogonalLoop=1;jettySize=auto;html=1;" edge="1" parent="1" source="NQ43_fncHJeU2ACMJRgW-8" target="dNukob80SHSAQVU258_d-10">
          <mxGeometry relative="1" as="geometry" />
        </mxCell>
        <mxCell id="NQ43_fncHJeU2ACMJRgW-8" value="用户协议" style="rhombus;whiteSpace=wrap;html=1;" vertex="1" parent="1">
          <mxGeometry x="175" y="240" width="110" height="60" as="geometry" />
        </mxCell>
        <mxCell id="NQ43_fncHJeU2ACMJRgW-28" style="edgeStyle=orthogonalEdgeStyle;rounded=0;orthogonalLoop=1;jettySize=auto;html=1;entryX=0.5;entryY=0;entryDx=0;entryDy=0;fontSize=14;exitX=0.5;exitY=1;exitDx=0;exitDy=0;" edge="1" parent="1" target="NQ43_fncHJeU2ACMJRgW-29" source="dNukob80SHSAQVU258_d-10">
          <mxGeometry relative="1" as="geometry">
            <mxPoint x="130" y="440" as="sourcePoint" />
          </mxGeometry>
        </mxCell>
        <mxCell id="NQ43_fncHJeU2ACMJRgW-29" value="加载服务器json&lt;br style=&quot;font-size: 14px&quot;&gt;建立bridge" style="rounded=0;whiteSpace=wrap;html=1;fontSize=14;" vertex="1" parent="1">
          <mxGeometry x="170" y="440" width="120" height="60" as="geometry" />
        </mxCell>
      </root>
    </mxGraphModel>
  </diagram>
  <diagram id="XdbtvgqvNu7m0K-4gskh" name="第 2 页">
    <mxGraphModel dx="1079" dy="757" grid="1" gridSize="10" guides="1" tooltips="1" connect="1" arrows="1" fold="1" page="1" pageScale="1" pageWidth="827" pageHeight="1169" math="0" shadow="0">
      <root>
        <mxCell id="XElLrKs_fJI2qOLERGhf-0" />
        <mxCell id="XElLrKs_fJI2qOLERGhf-1" parent="XElLrKs_fJI2qOLERGhf-0" />
        <mxCell id="XElLrKs_fJI2qOLERGhf-2" style="edgeStyle=orthogonalEdgeStyle;rounded=0;orthogonalLoop=1;jettySize=auto;html=1;fontSize=14;exitX=0.5;exitY=1;exitDx=0;exitDy=0;exitPerimeter=0;" edge="1" parent="XElLrKs_fJI2qOLERGhf-1" source="XElLrKs_fJI2qOLERGhf-13" target="XElLrKs_fJI2qOLERGhf-5">
          <mxGeometry relative="1" as="geometry">
            <mxPoint x="370" y="180" as="sourcePoint" />
          </mxGeometry>
        </mxCell>
        <mxCell id="XElLrKs_fJI2qOLERGhf-3" style="edgeStyle=orthogonalEdgeStyle;rounded=0;orthogonalLoop=1;jettySize=auto;html=1;fontSize=14;exitX=0.5;exitY=1;exitDx=0;exitDy=0;" edge="1" parent="XElLrKs_fJI2qOLERGhf-1" source="XElLrKs_fJI2qOLERGhf-14" target="XElLrKs_fJI2qOLERGhf-7">
          <mxGeometry relative="1" as="geometry">
            <mxPoint x="370" y="350" as="sourcePoint" />
          </mxGeometry>
        </mxCell>
        <mxCell id="XElLrKs_fJI2qOLERGhf-4" style="edgeStyle=orthogonalEdgeStyle;rounded=0;orthogonalLoop=1;jettySize=auto;html=1;fontSize=14;" edge="1" parent="XElLrKs_fJI2qOLERGhf-1" source="XElLrKs_fJI2qOLERGhf-5" target="XElLrKs_fJI2qOLERGhf-14">
          <mxGeometry relative="1" as="geometry" />
        </mxCell>
        <mxCell id="XElLrKs_fJI2qOLERGhf-5" value="网易/TGC闪屏" style="rounded=0;whiteSpace=wrap;html=1;fontSize=14;" vertex="1" parent="XElLrKs_fJI2qOLERGhf-1">
          <mxGeometry x="310" y="190" width="120" height="60" as="geometry" />
        </mxCell>
        <mxCell id="XElLrKs_fJI2qOLERGhf-6" style="edgeStyle=orthogonalEdgeStyle;rounded=0;orthogonalLoop=1;jettySize=auto;html=1;fontSize=14;" edge="1" parent="XElLrKs_fJI2qOLERGhf-1" source="XElLrKs_fJI2qOLERGhf-7" target="XElLrKs_fJI2qOLERGhf-11">
          <mxGeometry relative="1" as="geometry">
            <mxPoint x="370" y="430" as="targetPoint" />
          </mxGeometry>
        </mxCell>
        <mxCell id="XElLrKs_fJI2qOLERGhf-7" value="打开登录界面&lt;br style=&quot;font-size: 14px;&quot;&gt;排队" style="rounded=0;whiteSpace=wrap;html=1;fontSize=14;" vertex="1" parent="XElLrKs_fJI2qOLERGhf-1">
          <mxGeometry x="310" y="360" width="120" height="40" as="geometry" />
        </mxCell>
        <mxCell id="XElLrKs_fJI2qOLERGhf-8" style="edgeStyle=orthogonalEdgeStyle;rounded=0;orthogonalLoop=1;jettySize=auto;html=1;entryX=1;entryY=0.5;entryDx=0;entryDy=0;" edge="1" parent="XElLrKs_fJI2qOLERGhf-1" source="XElLrKs_fJI2qOLERGhf-11" target="XElLrKs_fJI2qOLERGhf-7">
          <mxGeometry relative="1" as="geometry">
            <mxPoint x="500" y="380" as="targetPoint" />
            <Array as="points">
              <mxPoint x="480" y="440" />
              <mxPoint x="480" y="380" />
            </Array>
          </mxGeometry>
        </mxCell>
        <mxCell id="XElLrKs_fJI2qOLERGhf-9" value="失败" style="edgeLabel;html=1;align=center;verticalAlign=middle;resizable=0;points=[];" vertex="1" connectable="0" parent="XElLrKs_fJI2qOLERGhf-8">
          <mxGeometry x="-0.15" relative="1" as="geometry">
            <mxPoint y="-12" as="offset" />
          </mxGeometry>
        </mxCell>
        <mxCell id="XElLrKs_fJI2qOLERGhf-10" style="edgeStyle=orthogonalEdgeStyle;rounded=0;orthogonalLoop=1;jettySize=auto;html=1;entryX=0.5;entryY=0;entryDx=0;entryDy=0;" edge="1" parent="XElLrKs_fJI2qOLERGhf-1" source="XElLrKs_fJI2qOLERGhf-11" target="XElLrKs_fJI2qOLERGhf-12">
          <mxGeometry relative="1" as="geometry">
            <mxPoint x="370" y="490" as="targetPoint" />
          </mxGeometry>
        </mxCell>
        <mxCell id="XElLrKs_fJI2qOLERGhf-11" value="&amp;nbsp;登录、计费登录" style="rounded=0;whiteSpace=wrap;html=1;fontSize=14;" vertex="1" parent="XElLrKs_fJI2qOLERGhf-1">
          <mxGeometry x="310" y="420" width="120" height="40" as="geometry" />
        </mxCell>
        <mxCell id="XElLrKs_fJI2qOLERGhf-12" value="Account加载场景" style="rounded=0;whiteSpace=wrap;html=1;fontSize=14;" vertex="1" parent="XElLrKs_fJI2qOLERGhf-1">
          <mxGeometry x="310" y="500" width="120" height="40" as="geometry" />
        </mxCell>
        <mxCell id="XElLrKs_fJI2qOLERGhf-13" value="viewControole显示" style="strokeWidth=2;html=1;shape=mxgraph.flowchart.start_1;whiteSpace=wrap;fontSize=14;" vertex="1" parent="XElLrKs_fJI2qOLERGhf-1">
          <mxGeometry x="320" y="110" width="100" height="60" as="geometry" />
        </mxCell>
        <mxCell id="XElLrKs_fJI2qOLERGhf-14" value="准备完成?" style="rhombus;whiteSpace=wrap;html=1;fontSize=14;" vertex="1" parent="XElLrKs_fJI2qOLERGhf-1">
          <mxGeometry x="315" y="280" width="110" height="60" as="geometry" />
        </mxCell>
      </root>
    </mxGraphModel>
  </diagram>
  <diagram id="JQtpKOBXFmRmWbCQkqAF" name="第 3 页">
    <mxGraphModel dx="1079" dy="757" grid="1" gridSize="10" guides="1" tooltips="1" connect="1" arrows="1" fold="1" page="1" pageScale="1" pageWidth="827" pageHeight="1169" math="0" shadow="0">
      <root>
        <mxCell id="m0FaJH8ulTKsaQKVKOO_-0" />
        <mxCell id="m0FaJH8ulTKsaQKVKOO_-1" parent="m0FaJH8ulTKsaQKVKOO_-0" />
        <mxCell id="m0FaJH8ulTKsaQKVKOO_-2" style="edgeStyle=orthogonalEdgeStyle;rounded=0;orthogonalLoop=1;jettySize=auto;html=1;entryX=0;entryY=0.5;entryDx=0;entryDy=0;fontSize=14;startArrow=block;startFill=0;endArrow=none;endFill=0;" edge="1" parent="m0FaJH8ulTKsaQKVKOO_-1" source="m0FaJH8ulTKsaQKVKOO_-3" target="m0FaJH8ulTKsaQKVKOO_-5">
          <mxGeometry relative="1" as="geometry" />
        </mxCell>
        <mxCell id="m0FaJH8ulTKsaQKVKOO_-3" value="BridgeViewController" style="rounded=0;whiteSpace=wrap;html=1;fontSize=14;" vertex="1" parent="m0FaJH8ulTKsaQKVKOO_-1">
          <mxGeometry x="100" y="280" width="160" height="50" as="geometry" />
        </mxCell>
        <mxCell id="m0FaJH8ulTKsaQKVKOO_-4" style="edgeStyle=orthogonalEdgeStyle;rounded=0;orthogonalLoop=1;jettySize=auto;html=1;entryX=0;entryY=0.5;entryDx=0;entryDy=0;fontSize=14;startArrow=block;startFill=0;endArrow=none;endFill=0;" edge="1" parent="m0FaJH8ulTKsaQKVKOO_-1" source="m0FaJH8ulTKsaQKVKOO_-5" target="m0FaJH8ulTKsaQKVKOO_-6">
          <mxGeometry relative="1" as="geometry" />
        </mxCell>
        <mxCell id="m0FaJH8ulTKsaQKVKOO_-5" value="MentalViewController" style="rounded=0;whiteSpace=wrap;html=1;fontSize=14;" vertex="1" parent="m0FaJH8ulTKsaQKVKOO_-1">
          <mxGeometry x="305" y="280" width="160" height="50" as="geometry" />
        </mxCell>
        <mxCell id="m0FaJH8ulTKsaQKVKOO_-6" value="ViewController_Netease" style="rounded=0;whiteSpace=wrap;html=1;fontSize=14;" vertex="1" parent="m0FaJH8ulTKsaQKVKOO_-1">
          <mxGeometry x="530" y="280" width="160" height="50" as="geometry" />
        </mxCell>
      </root>
    </mxGraphModel>
  </diagram>
</mxfile>
